<svg width="67" height="36" viewBox="0 0 67 36" fill="none" xmlns="http://www.w3.org/2000/svg">
<path fill-rule="evenodd" clip-rule="evenodd" d="M11.1136 35.4546C8.93182 35.4546 7.00568 34.9034 5.33523 33.8012C3.66477 32.6875 2.35796 31.1193 1.41477 29.0966C0.471592 27.0625 0 24.6591 0 21.8864C0 19.1364 0.471592 16.75 1.41477 14.7273C2.35796 12.7046 3.67046 11.1421 5.35227 10.0398C7.03409 8.93753 8.97727 8.38639 11.1818 8.38639C12.8864 8.38639 14.233 8.67048 15.2216 9.23866C16.2216 9.79548 16.983 10.4318 17.5057 11.1478C18.0398 11.8523 18.4545 12.4318 18.75 12.8864H19.0909V2.67029e-05H23.1136V34.9091H19.2273V30.8864H18.75C18.4545 31.3637 18.0341 31.9659 17.4886 32.6932C16.9432 33.4091 16.1648 34.0512 15.1534 34.6193C14.142 35.1762 12.7955 35.4546 11.1136 35.4546ZM40.9261 35.4546C38.7443 35.4546 36.8182 34.9034 35.1477 33.8012C33.4773 32.6875 32.1705 31.1193 31.2273 29.0966C30.2841 27.0625 29.8125 24.6591 29.8125 21.8864C29.8125 19.1364 30.2841 16.75 31.2273 14.7273C32.1705 12.7046 33.483 11.1421 35.1648 10.0398C36.8466 8.93753 38.7898 8.38639 40.9943 8.38639C42.6989 8.38639 44.0455 8.67048 45.0341 9.23866C46.0341 9.79548 46.7955 10.4318 47.3182 11.1478C47.8523 11.8523 48.267 12.4318 48.5625 12.8864H48.9034V2.67029e-05H52.9261V34.9091H49.0398V30.8864H48.5625C48.267 31.3637 47.8466 31.9659 47.3011 32.6932C46.7557 33.4091 45.9773 34.0512 44.9659 34.6193C43.9545 35.1762 42.608 35.4546 40.9261 35.4546ZM63.7841 35.1818C62.9432 35.1818 62.2216 34.8807 61.6193 34.2784C61.017 33.6762 60.7159 32.9546 60.7159 32.1137C60.7159 31.2728 61.017 30.5512 61.6193 29.9489C62.2216 29.3466 62.9432 29.0455 63.7841 29.0455C64.625 29.0455 65.3466 29.3466 65.9489 29.9489C66.5511 30.5512 66.8523 31.2728 66.8523 32.1137C66.8523 32.6705 66.7102 33.1818 66.4261 33.6478C66.1534 34.1137 65.7841 34.4887 65.3182 34.7728C64.8636 35.0455 64.3523 35.1818 63.7841 35.1818ZM12.5455 20.9091H10.5455V18.9091H12.5455V20.9091ZM12.5455 22.9091V20.9091H14.5455V22.9091H12.5455ZM10.5455 24.9091V22.9091H12.5455V24.9091H10.5455ZM8.54546 26.9091V24.9091H10.5455V26.9091H8.54546ZM8.54546 26.9091H6.54546V28.9091H8.54546V26.9091ZM8.54546 16.9091H10.5455V18.9091H8.54546V16.9091ZM8.54546 16.9091V14.9091H6.54546V16.9091H8.54546ZM44.2685 26.9091V28.2855H38.5369V26.9091H44.2685Z" fill="white"/>
</svg>
