<svg width="100" height="100" viewBox="0 0 100 100" fill="none" xmlns="http://www.w3.org/2000/svg">
<path d="M28.75 13.194L50 1.14946L71.2501 13.194L92.3058 25.5747L92.5 50L92.3058 74.4253L71.2502 86.806L50 98.8505L28.75 86.806L7.69419 74.4253L7.50003 50L7.69419 25.5747L28.75 13.194Z" stroke="white" stroke-width="2" id="svg-icon-stroke"/>
<path fill-rule="evenodd" clip-rule="evenodd" d="M28.1136 67.4546C25.9318 67.4546 24.0057 66.9034 22.3352 65.8012C20.6648 64.6875 19.358 63.1193 18.4148 61.0966C17.4716 59.0625 17 56.6591 17 53.8864C17 51.1364 17.4716 48.75 18.4148 46.7273C19.358 44.7046 20.6705 43.1421 22.3523 42.0398C24.0341 40.9375 25.9773 40.3864 28.1818 40.3864C29.8864 40.3864 31.233 40.6705 32.2216 41.2387C33.2216 41.7955 33.983 42.4318 34.5057 43.1478C35.0398 43.8523 35.4545 44.4318 35.75 44.8864H36.0909V32H40.1136V66.9091H36.2273V62.8864H35.75C35.4545 63.3637 35.0341 63.9659 34.4886 64.6932C33.9432 65.4091 33.1648 66.0512 32.1534 66.6193C31.142 67.1762 29.7955 67.4546 28.1136 67.4546ZM57.9261 67.4546C55.7443 67.4546 53.8182 66.9034 52.1477 65.8012C50.4773 64.6875 49.1705 63.1193 48.2273 61.0966C47.2841 59.0625 46.8125 56.6591 46.8125 53.8864C46.8125 51.1364 47.2841 48.75 48.2273 46.7273C49.1705 44.7046 50.483 43.1421 52.1648 42.0398C53.8466 40.9375 55.7898 40.3864 57.9943 40.3864C59.6989 40.3864 61.0455 40.6705 62.0341 41.2387C63.0341 41.7955 63.7955 42.4318 64.3182 43.1478C64.8523 43.8523 65.267 44.4318 65.5625 44.8864H65.9034V32H69.9261V66.9091H66.0398V62.8864H65.5625C65.267 63.3637 64.8466 63.9659 64.3011 64.6932C63.7557 65.4091 62.9773 66.0512 61.9659 66.6193C60.9545 67.1762 59.608 67.4546 57.9261 67.4546ZM80.7841 67.1818C79.9432 67.1818 79.2216 66.8807 78.6193 66.2784C78.017 65.6762 77.7159 64.9546 77.7159 64.1137C77.7159 63.2728 78.017 62.5512 78.6193 61.9489C79.2216 61.3466 79.9432 61.0455 80.7841 61.0455C81.625 61.0455 82.3466 61.3466 82.9489 61.9489C83.5511 62.5512 83.8523 63.2728 83.8523 64.1137C83.8523 64.6705 83.7102 65.1818 83.4261 65.6478C83.1534 66.1137 82.7841 66.4887 82.3182 66.7728C81.8636 67.0455 81.3523 67.1818 80.7841 67.1818ZM29.5455 52.9091H27.5455V50.9091H29.5455V52.9091ZM29.5455 54.9091V52.9091H31.5455V54.9091H29.5455ZM27.5455 56.9091V54.9091H29.5455V56.9091H27.5455ZM25.5455 58.9091V56.9091H27.5455V58.9091H25.5455ZM25.5455 58.9091H23.5455V60.9091H25.5455V58.9091ZM25.5455 48.9091H27.5455V50.9091H25.5455V48.9091ZM25.5455 48.9091V46.9091H23.5455V48.9091H25.5455ZM61.2685 58.9091V60.2855H55.5369V58.9091H61.2685Z" fill="white" id="svg"/>
</svg>
