<svg width="80" height="44" viewBox="0 0 80 44" fill="none" xmlns="http://www.w3.org/2000/svg">
<path fill-rule="evenodd" clip-rule="evenodd" d="M13.2993 43.2138C10.6884 43.2138 8.38349 42.5542 6.38446 41.2352C4.38555 39.9025 2.82174 38.0258 1.69305 35.6053C0.564349 33.1712 0 30.2951 0 26.9771C0 23.6863 0.564349 20.8306 1.69305 18.4101C2.82174 15.9896 4.39237 14.1198 6.40493 12.8007C8.41748 11.4816 10.7428 10.8221 13.3809 10.8221C15.4207 10.8221 17.0322 11.1621 18.2152 11.842C19.4119 12.5083 20.323 13.2698 20.9485 14.1266C21.5876 14.9696 22.0839 15.6631 22.4375 16.2071H22.8455V0.786377H27.6593V42.561H23.0087V37.7471H22.4375C22.0839 38.3183 21.5808 39.0389 20.928 39.9093C20.2754 40.766 19.3439 41.5344 18.1336 42.2142C16.9233 42.8806 15.312 43.2138 13.2993 43.2138ZM48.9749 43.2138C46.3641 43.2138 44.0592 42.5542 42.0601 41.2352C40.0612 39.9025 38.4974 38.0258 37.3687 35.6053C36.24 33.1712 35.6757 30.2951 35.6757 26.9771C35.6757 23.6863 36.24 20.8306 37.3687 18.4101C38.4974 15.9896 40.068 14.1198 42.0806 12.8007C44.0931 11.4816 46.4185 10.8221 49.0566 10.8221C51.0964 10.8221 52.7078 11.1621 53.8909 11.842C55.0875 12.5083 55.9987 13.2698 56.6242 14.1266C57.2633 14.9696 57.7596 15.6631 58.1132 16.2071H58.5211V0.786377H63.335V42.561H58.6844V37.7471H58.1132C57.7596 38.3183 57.2565 39.0389 56.6037 39.9093C55.951 40.766 55.0196 41.5344 53.8092 42.2142C52.5989 42.8806 50.9876 43.2138 48.9749 43.2138ZM76.3284 42.8873C75.3221 42.8873 74.4586 42.527 73.7378 41.8062C73.0171 41.0856 72.6568 40.2221 72.6568 39.2158C72.6568 38.2095 73.0171 37.346 73.7378 36.6253C74.4586 35.9045 75.3221 35.5442 76.3284 35.5442C77.3347 35.5442 78.1982 35.9045 78.9189 36.6253C79.6396 37.346 80 38.2095 80 39.2158C80 39.8821 79.8299 40.494 79.49 41.0516C79.1636 41.6091 78.7217 42.0579 78.1642 42.3979C77.6202 42.7242 77.0083 42.8873 76.3284 42.8873ZM15.0128 25.8076H12.6195V23.4143H15.0128V25.8076ZM15.0128 28.201V25.8076H17.4061V28.201H15.0128ZM12.6195 30.5943V28.201H15.0128V30.5943H12.6195ZM10.2261 32.9876V30.5943H12.6195V32.9876H10.2261ZM10.2261 32.9876H7.83279V35.381H10.2261V32.9876ZM10.2261 21.021H12.6195V23.4143H10.2261V21.021ZM10.2261 21.021V18.6276H7.83279V21.021H10.2261ZM52.9747 32.9876V34.6347H46.1159V32.9876H52.9747Z" fill="#E5E6ED"/>
</svg>
