<svg width="165" height="44" viewBox="0 0 165 44" fill="none" xmlns="http://www.w3.org/2000/svg">
<path fill-rule="evenodd" clip-rule="evenodd" d="M6.38446 41.2352C8.3835 42.5541 10.6884 43.2138 13.2993 43.2138C15.312 43.2138 16.9233 42.8806 18.1336 42.2142C19.3439 41.5344 20.2754 40.766 20.928 39.9093C21.5808 39.0389 22.0839 38.3183 22.4375 37.7471H23.0087V42.561H27.6593V0.786377H22.8455V16.2071H22.4375C22.0839 15.6631 21.5876 14.9696 20.9485 14.1266C20.323 13.2698 19.4119 12.5083 18.2152 11.842C17.0322 11.1621 15.4207 10.8221 13.3809 10.8221C10.7428 10.8221 8.41748 11.4816 6.40493 12.8007C4.39237 14.1198 2.82174 15.9896 1.69305 18.4101C0.564349 20.8306 0 23.6863 0 26.9771C0 30.2951 0.564349 33.1712 1.69305 35.6053C2.82174 38.0258 4.38555 39.9025 6.38446 41.2352ZM42.0601 41.2352C44.0592 42.5541 46.3641 43.2138 48.9749 43.2138C50.9876 43.2138 52.5989 42.8806 53.8092 42.2142C55.0196 41.5344 55.951 40.766 56.6037 39.9093C57.2565 39.0389 57.7596 38.3183 58.1132 37.7471H58.6844V42.561H63.335V0.786377H58.5211V16.2071H58.1132C57.7596 15.6631 57.2633 14.9696 56.6242 14.1266C55.9987 13.2698 55.0875 12.5083 53.8909 11.842C52.7078 11.1621 51.0964 10.8221 49.0566 10.8221C46.4185 10.8221 44.0931 11.4816 42.0806 12.8007C40.068 14.1198 38.4974 15.9896 37.3687 18.4101C36.24 20.8306 35.6757 23.6863 35.6757 26.9771C35.6757 30.2951 36.24 33.1712 37.3687 35.6053C38.4974 38.0258 40.0612 39.9025 42.0601 41.2352ZM12.6195 25.8076H15.0128V28.201H12.6195V30.5943H10.2261V32.9876H7.83279V35.381H10.2261V32.9876H12.6195V30.5943H15.0128V28.201H17.4061V25.8076H15.0128V23.4143H12.6195V21.021H10.2261V18.6276H7.83279V21.021H10.2261V23.4143H12.6195V25.8076ZM52.9747 34.6347V32.9876H46.1159V34.6347H52.9747ZM69.48 10.072L81.48 43H88.728L100.728 10.072H94.248L86.472 32.776C86.344 33.16 86.216 33.56 86.088 33.976C85.96 34.36 85.832 34.728 85.704 35.08C85.608 35.432 85.512 35.736 85.416 35.992H85.176C85.08 35.704 84.968 35.384 84.84 35.032C84.712 34.648 84.584 34.248 84.456 33.832C84.328 33.416 84.2 33.048 84.072 32.728L76.248 10.072H69.48ZM104.323 8.296V13.864H110.179V8.296H104.323ZM104.323 17.752V43H110.179V17.752H104.323ZM119.393 42.664C120.289 43.272 121.521 43.576 123.089 43.576C123.537 43.576 124.017 43.528 124.529 43.432C125.041 43.368 125.521 43.272 125.969 43.144C126.449 43.048 126.849 42.936 127.169 42.808V38.776H124.913C124.209 38.776 123.681 38.6 123.329 38.248C122.977 37.864 122.801 37.336 122.801 36.664V22.552H127.169V17.752H122.801V10.696H118.145L117.089 17.752H113.921V22.552H116.945V37.24C116.945 38.264 117.121 39.272 117.473 40.264C117.857 41.224 118.497 42.024 119.393 42.664ZM135.543 43.288C136.471 43.48 137.287 43.576 137.991 43.576C139.303 43.576 140.455 43.432 141.447 43.144C142.471 42.856 143.351 42.456 144.087 41.944C144.855 41.4 145.511 40.792 146.055 40.12H146.343C146.535 40.824 146.855 41.432 147.303 41.944C147.751 42.456 148.295 42.84 148.935 43.096C149.607 43.384 150.359 43.528 151.191 43.528C152.087 43.528 152.839 43.432 153.447 43.24C154.055 43.08 154.519 42.936 154.839 42.808V38.776H153.303C152.887 38.776 152.503 38.648 152.151 38.392C151.799 38.136 151.623 37.704 151.623 37.096V25.192C151.623 23.496 151.255 22.056 150.519 20.872C149.783 19.688 148.663 18.776 147.159 18.136C145.687 17.496 143.799 17.176 141.495 17.176C139.479 17.176 137.703 17.464 136.167 18.04C134.631 18.584 133.431 19.384 132.567 20.44C131.703 21.496 131.271 22.744 131.271 24.184V24.76C131.271 24.92 131.287 25.08 131.319 25.24H136.983V24.568C136.983 24.12 137.111 23.688 137.367 23.272C137.623 22.856 138.087 22.504 138.759 22.216C139.431 21.928 140.359 21.784 141.543 21.784C142.727 21.784 143.607 21.96 144.183 22.312C144.791 22.632 145.207 23.08 145.431 23.656C145.655 24.232 145.767 24.888 145.767 25.624V27.688C143.463 27.688 141.335 27.832 139.383 28.12C137.463 28.376 135.799 28.84 134.391 29.512C133.015 30.152 131.943 31.048 131.175 32.2C130.407 33.32 130.023 34.744 130.023 36.472C130.023 38.008 130.295 39.256 130.839 40.216C131.383 41.144 132.071 41.848 132.903 42.328C133.767 42.808 134.647 43.128 135.543 43.288ZM142.311 38.344C141.575 38.632 140.727 38.776 139.767 38.776C138.935 38.776 138.231 38.664 137.655 38.44C137.111 38.184 136.695 37.848 136.407 37.432C136.151 36.984 136.023 36.472 136.023 35.896C136.023 34.776 136.455 33.912 137.319 33.304C138.215 32.696 139.399 32.28 140.871 32.056C142.375 31.832 144.007 31.72 145.767 31.72V32.872C145.767 33.736 145.623 34.536 145.335 35.272C145.079 36.008 144.695 36.632 144.183 37.144C143.703 37.656 143.079 38.056 142.311 38.344ZM158.182 8.296V43H164.038V8.296H158.182Z" fill="white"/>
</svg>
