<svg width="40" height="40" viewBox="0 0 40 40" fill="none" xmlns="http://www.w3.org/2000/svg">
<path d="M19.501 38.2595L4.43857 29.5408L4.24991 29.2444C4.16649 29.1133 4.125 28.9455 4.125 28.7188V11.3125C4.125 11.2064 4.16476 11.02 4.26649 10.8239C4.36925 10.6259 4.4812 10.5211 4.537 10.4877C4.53743 10.4874 4.53785 10.4872 4.53827 10.4869L19.5008 1.78998C19.6161 1.73705 19.7965 1.6875 20 1.6875C20.2934 1.6875 20.4183 1.74147 20.4387 1.75425L20.4542 1.76388L20.4699 1.77294L35.5637 10.4604L35.5702 10.4642L35.5769 10.4679C35.5949 10.478 35.6189 10.4951 35.6467 10.5189L35.8049 10.8749C35.8532 10.9835 35.861 11.0808 35.8515 11.1572L35.8437 11.219V11.2812V14.9375H35.625H34.1573H34.125H33.3052H32.9375H31.4062H30.9324L31.2185 14.7724L32.0811 14.2748L31.587 13.4101C29.2933 9.39614 24.9711 6.65625 20 6.65625C12.6352 6.65625 6.65625 12.6352 6.65625 20C6.65625 27.3648 12.6352 33.3438 20 33.3438C24.9355 33.3438 29.2583 30.6392 31.5539 26.6555L32.0484 25.7974L31.1951 25.2947L30.801 25.0625H31.2489H31.2812H32.101H32.4687H34H34.8198L34.9806 24.2586L35.1948 23.1875H35.8437V28.7188C35.8437 28.8248 35.804 29.0113 35.7023 29.2073C35.5995 29.4054 35.4875 29.5102 35.4317 29.5436C35.4313 29.5438 35.4309 29.5441 35.4305 29.5443L20.468 38.2413C20.3526 38.2942 20.1722 38.3438 19.9687 38.3438C19.6754 38.3438 19.5504 38.2898 19.53 38.277L19.5156 38.268L19.501 38.2595ZM28.375 19.625V20.375V20.625V22.1875V23.1875H28.9364L28.8007 23.8664L28.7975 23.8821L27.1639 22.9197L26.2882 22.4038L25.7866 23.2876C24.6451 25.2988 22.4707 26.6562 20 26.6562C16.3335 26.6562 13.3437 23.6665 13.3437 20C13.3437 16.3335 16.3335 13.3438 20 13.3438C22.4691 13.3438 24.6418 14.6994 25.7837 16.7386L26.2786 17.6223L27.156 17.1162L30.5413 15.1631L30.4257 15.7414L30.2114 16.8125H29.375H28.375V17.8125V19.375V19.625Z" fill="#47444B" stroke="#47444B" stroke-width="2"/>
</svg>
