<svg width="40" height="40" viewBox="0 0 40 40" fill="none" xmlns="http://www.w3.org/2000/svg">
<path d="M19.3267 9.88667V1H24.2867V29.1762C21.1816 29.6962 18.8063 29.9016 16.2594 29.9017C12.1265 29.8976 9.15739 29.0232 7.23693 27.4712C5.3544 25.9498 4.33337 23.6574 4.33337 20.455C4.33337 17.3969 5.41125 14.951 7.263 13.2625C9.12405 11.5654 11.8572 10.5525 15.2998 10.5533L15.3086 10.5533L15.3174 10.5532C16.2515 10.537 17.184 10.6397 18.0922 10.8588L19.3267 11.1566V9.88667ZM19.57 15.295V14.5562L18.8639 14.3391C17.9405 14.0553 17.1661 13.9617 16.2234 13.9617C14.2748 13.9617 12.6043 14.5249 11.4211 15.7081C10.2378 16.8914 9.67171 18.5648 9.67171 20.525C9.67171 22.4333 10.2128 24.0621 11.3908 25.209C12.5646 26.3519 14.2262 26.875 16.18 26.875C16.9998 26.875 17.669 26.8296 18.6949 26.7005L19.57 26.5904V25.7083V15.295Z" fill="#F9F9F9" stroke="#F9F9F9" stroke-width="2"/>
<path d="M36.6667 25.3883V10.3583H29.7167V23.15C29.7167 28.795 29.4034 30.94 28.4084 32.7933C27.4584 34.605 25.9717 35.7933 22.9 37.1367L29.3584 40C32.43 38.5633 33.9167 37.2617 35.045 35.2C36.255 33.0533 36.6667 30.5633 36.6667 25.3883ZM35.9734 0H29.0167V6.655H35.975L35.9734 0Z" fill="#F9F9F9"/>
</svg>
