<svg width="40" height="40" viewBox="0 0 40 40" fill="none" xmlns="http://www.w3.org/2000/svg">
<path d="M2.00001 25.6166V25.615V23.145H5.20501V25.615V26.615H6.20501H11.41H12.41V25.615V11H15.615V25.615C15.615 26.7983 15.2118 27.7727 14.388 28.5965C13.5643 29.4203 12.5916 29.8219 11.4116 29.82H11.41H6.20501C5.0217 29.82 4.04732 29.4169 3.2235 28.593C2.39975 27.7693 1.99812 26.7966 2.00001 25.6166ZM22.82 27.3524V27.35V24.88H26.025V25.615V26.615H27.025H33.965H34.965V25.615V22.145V21.145H33.965H25.29C24.5592 21.145 23.9928 20.9083 23.523 20.4385C23.0533 19.9689 22.8183 19.4044 22.82 18.6774V18.675V13.47C22.82 12.7392 23.0567 12.1728 23.5265 11.703C23.9961 11.2333 24.5606 10.9983 25.2876 11H25.29H35.7C36.4308 11 36.9972 11.2367 37.467 11.7065C37.9367 12.1762 38.1717 12.7407 38.17 13.4677V13.47V15.94H34.965V15.205V14.205H33.965H27.025H26.025V15.205V18.675V19.675H27.025H35.7C36.4308 19.675 36.9972 19.9117 37.467 20.3815C37.9367 20.8512 38.1717 21.4157 38.17 22.1427V22.145V27.35C38.17 28.0808 37.9333 28.6472 37.4635 29.117C36.9938 29.5867 36.4293 29.8217 35.7023 29.82H35.7H25.29C24.5592 29.82 23.9928 29.5833 23.523 29.1135C23.0533 28.6439 22.8183 28.0794 22.82 27.3524ZM33.965 16.205V15.94L34.965 16.94H33.965V16.205ZM39.17 16.94H38.17L39.17 15.94V16.94Z" fill="#47444B" stroke="#47444B" stroke-width="2"/>
</svg>
