<svg width="24" height="24" viewBox="0 0 24 24" fill="none" xmlns="http://www.w3.org/2000/svg">
<path d="M15 21C15 21 15 18.7256 15 18C15 17.3743 15.1506 16.038 14.5 15.5C15.8887 15.3749 16.983 14.9178 18 14C19.017 13.0822 19.5 11.6875 19.5 9.5C19.5 8 19.25 7 18.5 6C18.7863 5.21921 18.8438 4 18.5 3C16.9375 3 15.5255 4.07463 15 4.5C14.6122 4.39991 13.6683 4 12 4C10.3317 4 9.38784 4.39991 9 4.5C8.47455 4.07463 7.0625 3 5.5 3C5.15625 4 5.21371 5.21921 5.5 6C4.75 7 4.5 8 4.5 9.5C4.5 11.6875 4.98301 13.0822 6 14C7.01699 14.9178 8.1113 15.3749 9.5 15.5C8.84944 16.038 9 17.3743 9 18C9 18.7256 9 21 9 21" stroke="black" stroke-width="2" stroke-linecap="round" stroke-linejoin="round"/>
<path d="M9 19C7.594 19 6 18.5 5 18.5C4.468 18.5 4 18.5 3 18" stroke="black" stroke-width="2" stroke-linecap="round" stroke-linejoin="round"/>
</svg>
