<svg width="40" height="40" viewBox="0 0 40 40" fill="none" xmlns="http://www.w3.org/2000/svg">
<g clip-path="url(#clip0_709_446)">
<path d="M18.6073 23.43C18.8137 24.3483 19.2247 25.2155 20.1761 25.8184C21.1932 26.463 22.6696 26.6933 24.7066 26.6933C26.3308 26.6933 27.6733 26.5233 28.6368 26.0282C29.1411 25.769 29.5655 25.4089 29.8563 24.9229C30.1461 24.4388 30.2616 23.8992 30.2616 23.3467C30.2616 23.053 30.2364 22.6273 30.0016 22.1987C29.7609 21.7595 29.373 21.4444 28.892 21.2075C27.9919 20.7641 26.4827 20.4621 24.006 20.2246C21.9424 20.0226 20.4567 19.7129 19.4979 19.1609C19.0412 18.8979 18.7311 18.5943 18.5281 18.2383C18.3241 17.8808 18.1916 17.4059 18.1916 16.745C18.1916 15.5933 18.6704 14.717 19.5875 14.0891C20.5483 13.4315 22.0517 13.0117 24.1 13.0117C26.4472 13.0117 28.0221 13.4072 29.0231 14.0867C29.8351 14.638 30.3617 15.4401 30.5768 16.625H29.7022C29.4062 15.6482 28.8854 14.8509 27.9594 14.3286C26.98 13.7762 25.6831 13.6167 24.1 13.6167C22.2833 13.6167 21.0391 13.9136 20.2371 14.5117C19.3513 15.1723 19.19 16.0499 19.19 16.67C19.19 16.9957 19.2223 17.4481 19.4948 17.88C19.7701 18.3162 20.1925 18.5815 20.6488 18.7667C21.507 19.1152 22.9506 19.3553 25.2653 19.6439L18.6073 23.43ZM18.6073 23.43H17.6884C17.7798 24.2957 18.1041 25.1179 18.8391 25.7735C19.7544 26.5898 21.4726 27.2983 24.6683 27.2983C26.9748 27.2983 28.6399 26.8562 29.7024 26.1464C30.7129 25.4713 31.2431 24.5162 31.26 23.229C31.2593 22.5586 31.1419 22.0866 30.9578 21.7362C30.7772 21.3925 30.498 21.0997 30.0622 20.839C29.1314 20.2822 27.6146 19.9391 25.2663 19.644L18.6073 23.43ZM18.8829 38.643L14.9818 36.4046C15.1713 36.3141 15.3773 36.2071 15.6328 36.0685L19.2344 38.1507L19.2645 38.1681L19.2957 38.1834C19.5154 38.2908 19.7522 38.34 19.9762 38.34C20.1811 38.34 20.4454 38.298 20.6961 38.1477L35.8055 29.6943C36.3485 29.4128 36.5616 28.8762 36.5616 28.4083V11.4983C36.5616 11.0368 36.3544 10.4945 35.803 10.211L20.6765 1.78636L20.6513 1.77229L20.6253 1.75971C20.2589 1.58256 19.703 1.51239 19.2292 1.79704L4.12117 10.2115C3.54369 10.5097 3.36163 11.1107 3.36163 11.4983V28.4083C3.36163 28.7958 3.54351 29.3963 4.12034 29.6948L8.2388 31.9963L8.26199 32.0092L8.28583 32.0209C9.62178 32.677 10.8842 32.6972 11.8668 32.1618C12.8257 31.6393 13.37 30.6568 13.37 29.6567V13.5267H14.2166V29.655C14.2166 30.9204 13.8631 31.788 13.3287 32.3366C12.7979 32.8814 11.9635 33.24 10.7383 33.24C10.3062 33.24 10.012 33.238 9.60504 33.1487C9.18901 33.0573 8.6174 32.8646 7.7025 32.4327L3.74494 30.2479L3.74347 30.2471C3.41927 30.0688 3.14853 29.8072 2.95922 29.4893C2.77039 29.1722 2.66941 28.8106 2.66663 28.4416V11.535C2.66663 10.8054 3.07005 10.1094 3.7479 9.73214L3.74996 9.73099L18.8778 1.26561C19.2257 1.09009 19.6101 0.998596 20 0.998596C20.3899 0.998596 20.7742 1.09009 21.1222 1.26563L36.2517 9.72939L36.2531 9.73013C36.9296 10.1073 37.3333 10.8035 37.3333 11.5333V28.4433C37.3333 29.1729 36.9297 29.8699 36.2519 30.2488L36.2518 30.2489L21.1524 38.6941C20.7874 38.8456 20.396 38.9236 20.0006 38.9233L19.8758 38.9233C19.5372 38.9046 19.2096 38.8098 18.8829 38.643Z" fill="#47444B" stroke="#47444B" stroke-width="2"/>
</g>
<defs>
<clipPath id="clip0_709_446">
<rect width="40" height="40" fill="white"/>
</clipPath>
</defs>
</svg>
