<svg width="40" height="40" viewBox="0 0 40 40" fill="none" xmlns="http://www.w3.org/2000/svg">
<g clip-path="url(#clip0_709_430)">
<path d="M16 6.66668H18.6667M12 10.6667V4.00001C12 3.29277 12.281 2.61449 12.7811 2.11439C13.2812 1.6143 13.9595 1.33334 14.6667 1.33334H25.3334C26.0406 1.33334 26.7189 1.6143 27.219 2.11439C27.7191 2.61449 28 3.29277 28 4.00001V17.3333C28 18.0406 27.7191 18.7189 27.219 19.219C26.7189 19.7191 26.0406 20 25.3334 20H14.6667C13.9595 20 13.2812 20.281 12.7811 20.7811C12.281 21.2812 12 21.9594 12 22.6667V36C12 36.7073 12.281 37.3855 12.7811 37.8856C13.2812 38.3857 13.9595 38.6667 14.6667 38.6667H25.3334C26.0406 38.6667 26.7189 38.3857 27.219 37.8856C27.7191 37.3855 28 36.7073 28 36V29.3333M21.3334 12H4.00004C3.2928 12 2.61452 12.281 2.11442 12.7811C1.61433 13.2812 1.33337 13.9594 1.33337 14.6667V28C1.33337 28.7073 1.61433 29.3855 2.11442 29.8856C2.61452 30.3857 3.2928 30.6667 4.00004 30.6667H12M18.6667 28H36C36.7073 28 37.3856 27.7191 37.8857 27.219C38.3858 26.7189 38.6667 26.0406 38.6667 25.3333V12C38.6667 11.2928 38.3858 10.6145 37.8857 10.1144C37.3856 9.6143 36.7073 9.33334 36 9.33334H28M21.3334 33.3333H24" stroke="#47444B" stroke-width="2"/>
</g>
<defs>
<clipPath id="clip0_709_430">
<rect width="40" height="40" fill="white"/>
</clipPath>
</defs>
</svg>
