<svg width="40" height="40" viewBox="0 0 40 40" fill="none" xmlns="http://www.w3.org/2000/svg">
<path d="M21.9062 14.8438C21.9062 15.8965 21.0528 16.75 20 16.75C18.9472 16.75 18.0938 15.8965 18.0938 14.8438C18.0938 13.791 18.9472 12.9375 20 12.9375C21.0528 12.9375 21.9062 13.791 21.9062 14.8438Z" fill="#47444B" stroke="#47444B" stroke-width="2"/>
<path d="M20 25.5312C22.2813 27.75 24.5313 29.0625 26.3438 29.0625C26.9375 29.0625 27.5 28.9375 27.9688 28.6562C29.5938 27.7188 30.1875 25.375 29.625 22.0312C29.5313 21.4375 29.4063 20.8438 29.25 20.2188C29.875 20.0312 30.4375 19.8438 31 19.6562C34.1563 18.4375 35.9063 16.75 35.9063 14.9063C35.9063 13.0313 34.1563 11.3438 31 10.1562C30.4375 9.9375 29.875 9.75 29.25 9.59375C29.4063 8.96875 29.5313 8.375 29.625 7.78125C30.1563 4.375 29.5625 2 27.9375 1.0625C27.4688 0.78125 26.9063 0.65625 26.3125 0.65625C24.5313 0.65625 22.25 1.96875 19.9688 4.1875C17.7188 1.96875 15.4688 0.65625 13.6563 0.65625C13.0625 0.65625 12.5 0.78125 12.0313 1.0625C10.4063 2 9.8125 4.34375 10.375 7.6875C10.4688 8.28125 10.5938 8.875 10.75 9.5C10.125 9.6875 9.5625 9.875 9 10.0625C5.84375 11.2812 4.09375 12.9688 4.09375 14.8125C4.09375 16.6875 5.84375 18.375 9 19.5625C9.5625 19.7812 10.125 19.9688 10.75 20.125C10.5938 20.75 10.4688 21.3438 10.375 21.9375C9.84375 25.2812 10.4375 27.6562 12.0313 28.5625C12.5 28.8438 13.0625 28.9688 13.6563 28.9688C15.4688 29.0312 17.7188 27.7188 20 25.5312ZM18.25 21.3125C18.8125 21.3438 19.4063 21.3438 20 21.3438C20.5938 21.3438 21.1875 21.3438 21.75 21.3125C21.1875 22.0625 20.5938 22.75 20 23.4062C19.4063 22.75 18.8125 22.0625 18.25 21.3125ZM14.375 18.0938C14.6875 18.625 14.9688 19.125 15.3125 19.625C14.3438 19.5 13.4375 19.3438 12.5625 19.1562C12.8438 18.3125 13.1563 17.4375 13.5313 16.5625C13.7813 17.0625 14.0625 17.5938 14.375 18.0938ZM12.5625 10.5625C13.4375 10.375 14.3438 10.2188 15.3125 10.0938C15 10.5938 14.6875 11.0938 14.375 11.625C14.0625 12.1563 13.7813 12.6563 13.5313 13.1875C13.125 12.2813 12.8125 11.4062 12.5625 10.5625ZM14.2813 14.8438C14.6875 14 15.125 13.1563 15.625 12.3125C16.0938 11.5 16.625 10.6875 17.1563 9.875C18.0938 9.8125 19.0313 9.78125 20 9.78125C21 9.78125 21.9375 9.8125 22.8438 9.875C23.4063 10.6875 23.9063 11.5 24.375 12.3125C24.875 13.1563 25.3125 14 25.7188 14.8438C25.3125 15.6875 24.875 16.5312 24.375 17.375C23.9063 18.1875 23.375 19 22.8438 19.8125C21.9063 19.875 20.9688 19.9062 20 19.9062C19 19.9062 18.0625 19.875 17.1563 19.8125C16.5938 19 16.0938 18.1875 15.625 17.375C15.125 16.5312 14.6875 15.6875 14.2813 14.8438ZM26.5 13.1562L25.6563 11.5938C25.3438 11.0625 25.0625 10.5625 24.7188 10.0625C25.6875 10.1875 26.5938 10.3438 27.4688 10.5312C27.1875 11.4062 26.875 12.2812 26.5 13.1562ZM26.5 16.5313C26.875 17.4062 27.1875 18.2812 27.4688 19.125C26.5938 19.3125 25.6875 19.4688 24.7188 19.5938C25.0313 19.0938 25.3438 18.5938 25.6563 18.0625C25.9375 17.5938 26.2188 17.0625 26.5 16.5313ZM27.2188 27.375C26.9688 27.5312 26.6563 27.5938 26.3125 27.5938C24.7813 27.5938 22.875 26.3438 21 24.4688C21.9063 23.5 22.7813 22.4063 23.6563 21.1875C25.125 21.0625 26.5313 20.8438 27.8438 20.5312C28 21.0938 28.0938 21.6562 28.1875 22.2188C28.625 24.875 28.2813 26.7812 27.2188 27.375ZM28.8438 10.9063C32.3438 11.9063 34.4375 13.4375 34.4375 14.8438C34.4375 16.0625 33 17.2813 30.4688 18.25C29.9688 18.4375 29.4063 18.625 28.8438 18.7812C28.4375 17.5 27.9375 16.1875 27.3125 14.8438C27.9375 13.5 28.4688 12.1875 28.8438 10.9063ZM26.3438 2.09375C26.6875 2.09375 26.9688 2.15625 27.25 2.3125C28.2813 2.90625 28.6563 4.78125 28.2188 7.46875C28.125 8 28 8.5625 27.875 9.15625C26.5625 8.875 25.1563 8.65625 23.6875 8.5C22.8438 7.28125 21.9375 6.1875 21.0313 5.21875C22.9063 3.375 24.8125 2.09375 26.3438 2.09375ZM21.75 8.375C21.1875 8.34375 20.5938 8.34375 20 8.34375C19.4063 8.34375 18.8125 8.34375 18.25 8.375C18.8125 7.625 19.4063 6.9375 20 6.28125C20.5938 6.9375 21.1875 7.65625 21.75 8.375ZM12.7813 2.3125C13.0313 2.15625 13.3438 2.09375 13.6875 2.09375C15.2188 2.09375 17.125 3.34375 19 5.21875C18.0938 6.1875 17.2188 7.28125 16.3438 8.5C14.875 8.625 13.4688 8.84375 12.1563 9.15625C12 8.59375 11.9063 8.03125 11.8125 7.46875C11.375 4.8125 11.7188 2.9375 12.7813 2.3125ZM11.1563 18.7812C7.65625 17.7812 5.5625 16.25 5.5625 14.8438C5.5625 13.625 7 12.4062 9.53125 11.4375C10.0313 11.25 10.5938 11.0625 11.1563 10.9063C11.5625 12.1875 12.0625 13.5 12.6875 14.8438C12.0625 16.1875 11.5313 17.5312 11.1563 18.7812ZM11.8125 22.2188C11.9063 21.6875 12.0313 21.125 12.1563 20.5312C13.4688 20.8125 14.875 21.0313 16.3438 21.1875C17.1875 22.4063 18.0938 23.5 19 24.4688C17.125 26.3125 15.2188 27.5938 13.6875 27.5938C13.3438 27.5938 13.0625 27.5312 12.7813 27.375C11.7188 26.7812 11.375 24.875 11.8125 22.2188ZM10.5 35.0938C11.1875 34.25 11.2188 33.3125 10.8438 32.375C10.4688 31.4375 9.6875 31 8.71875 30.9688C7.5625 30.9375 6.375 30.9688 5.21875 30.9688H5V39.0625H5.9375V36H7.40625C7.59375 36 7.75 36.0625 7.84375 36.2188L9.71875 39.125C9.75 39.1875 9.84375 39.2812 9.90625 39.2812H11.125C10.375 38.125 9.65625 37.0312 8.90625 35.9062C9.5625 35.8125 10.125 35.5938 10.5 35.0938ZM5.9375 35.0312V31.9375H6.28125C7 31.9375 7.75 31.9063 8.46875 31.9688C9.3125 32 9.90625 32.6562 9.90625 33.5C9.90625 34.3438 9.21875 35 8.375 35.0312C7.625 35.0625 6.875 35.0312 5.9375 35.0312ZM18.0313 35.4375C17.5313 33.25 15.5313 32.6875 14 33.375C12.8125 33.9062 12.2813 34.9375 12.25 36.2188C12.2188 37.1875 12.5 38.0625 13.25 38.7188C14.0938 39.4688 15.125 39.5625 16.1875 39.375C16.7812 39.25 17.3125 38.9688 17.7188 38.5312C17.5625 38.3125 17.4063 38.0938 17.25 37.9062C16.375 38.6562 15.4063 38.9062 14.3438 38.4062C13.6563 38.0625 13.3125 37.2188 13.25 36.5938H18.0938V36.1875C18.125 35.9062 18.0938 35.6562 18.0313 35.4375ZM13.3125 35.9375C13.2188 35 14.1563 34 15.1875 34C16.375 33.9688 17.125 34.6875 17.1563 35.9375H13.3125ZM22.9063 33.2188C22.4375 33.125 21.9375 33.0938 21.4688 33.125C20.7188 33.1875 20.0625 33.5312 19.5313 34.0938C19.6875 34.3125 19.8125 34.5312 20 34.7812C20.0625 34.7188 20.125 34.6562 20.1875 34.625C20.6875 34.1562 21.2813 33.9062 22 33.9688C22.5625 34 23.0938 34.1875 23.25 34.75C23.375 35.1875 23.3438 35.6562 23.375 36.125C23.2813 36.125 23.25 36.0938 23.2188 36.0625C22.4688 35.4375 21.625 35.3125 20.7188 35.5312C19.875 35.75 19.3438 36.4062 19.2813 37.25C19.2188 38.2188 19.6563 38.9375 20.5 39.2812C21.0313 39.5 21.625 39.5 22.1875 39.375C22.625 39.2812 22.8125 39.0312 23.4375 38.6875V39.0938H24.3125C24.3125 37.8438 24.3438 36.3125 24.3125 34.875C24.3125 33.9688 23.7813 33.4062 22.9063 33.2188ZM23.3438 37.1562C23.3125 37.25 23.3438 37.3438 23.3438 37.4375C23.3438 38.0938 23.1875 38.3125 22.5625 38.5625C22.125 38.7188 21.6563 38.7812 21.1875 38.625C20.6563 38.4688 20.2813 38 20.2813 37.4688C20.25 36.9375 20.5938 36.4062 21.125 36.25C21.8438 36 22.5 36.1562 23.0938 36.5938C23.2813 36.75 23.4063 36.9062 23.3438 37.1562ZM28.2188 34.0625C29.0313 33.8125 29.7813 33.9688 30.3438 34.6562L30.4375 34.7188C30.6563 34.5312 30.8438 34.3438 31.0938 34.125C31 34.0312 30.9688 33.9688 30.9063 33.875C30 32.9062 28.2188 32.7812 27.125 33.5625C25.5938 34.6875 25.625 36.875 26.375 38.0312C27.0938 39.125 28.125 39.5 29.3438 39.3438C30.0625 39.25 30.6563 38.9062 31.125 38.3125C30.9063 38.125 30.6875 37.9375 30.4688 37.7188C30.4063 37.7812 30.375 37.8125 30.3438 37.875C29.5 38.8125 28.0938 38.7188 27.3438 37.7188C26.9063 37.125 26.8125 36.4375 26.9375 35.75C27 34.9688 27.4063 34.3438 28.2188 34.0625ZM34.7188 38.3125C34.6563 38.3438 34.625 38.375 34.625 38.375C34.375 38.5625 34.125 38.5938 33.8438 38.5C33.5625 38.375 33.5313 38.125 33.5 37.875V34.3125C33.5 34.25 33.5 34.375 33.5313 34.0625H34.7188V33.125H33.4688V31.5625H32.5313V33.25H31.7188C31.6563 33.25 31.5625 33.3125 31.5625 33.375C31.5313 33.5938 31.5625 33.75 31.5625 34.0625H32.5625V38.0625C32.5625 38.5625 32.6875 39 33.125 39.25C33.5938 39.5312 34.5 39.4688 34.9063 39.125C34.9688 39.0938 35 38.9688 35 38.9375C34.9063 38.75 34.8125 38.5312 34.7188 38.3125Z" fill="#47444B"/>
</svg>
