<svg width="24" height="24" viewBox="0 0 24 24" fill="none" xmlns="http://www.w3.org/2000/svg">
<path id="icon" fill-rule="evenodd" clip-rule="evenodd" d="M12 2C6.47917 2 2 6.47917 2 12C2 17.5208 6.47917 22 12 22C17.51 22 22 17.5208 22 12C22 6.47917 17.51 2 12 2ZM18.605 6.60917C19.8362 8.10861 20.5175 9.98408 20.5358 11.9242C20.2542 11.87 17.4342 11.295 14.5925 11.6533C14.5267 11.5117 14.4725 11.36 14.4075 11.2083C14.2308 10.7912 14.0429 10.3788 13.8442 9.97167C16.9892 8.69167 18.4208 6.84833 18.605 6.60917ZM12 3.47583C14.1692 3.47583 16.1542 4.28833 17.6617 5.6225C17.51 5.83917 16.2192 7.56417 13.1825 8.7025C11.7825 6.1325 10.2325 4.0275 9.99333 3.7025C10.6511 3.54891 11.3245 3.47256 12 3.475V3.47583ZM8.36667 4.2775C8.59417 4.58167 10.1125 6.69667 11.5333 9.2125C7.54167 10.2758 4.01667 10.2542 3.6375 10.2542C4.19083 7.6075 5.98083 5.40583 8.36667 4.2775ZM3.45333 12.0108V11.7508C3.8225 11.7617 7.965 11.8158 12.2283 10.5358C12.4775 11.0133 12.705 11.5008 12.9217 11.9892C12.8133 12.0217 12.6942 12.0542 12.5858 12.0867C8.1825 13.5075 5.83917 17.39 5.64417 17.7158C4.23368 16.1504 3.45317 14.118 3.45333 12.0108ZM12 20.5467C10.1017 20.5497 8.2572 19.9159 6.76167 18.7467C6.91333 18.4317 8.64833 15.0908 13.4642 13.41C13.4858 13.3992 13.4975 13.3992 13.5183 13.3883C14.7225 16.5008 15.21 19.115 15.3408 19.8633C14.31 20.3083 13.1825 20.5467 12 20.5467ZM16.7617 19.0825C16.675 18.5617 16.2192 16.0675 15.1017 12.9975C17.7808 12.575 20.1233 13.2692 20.4167 13.3667C20.0475 15.7417 18.6808 17.7917 16.7617 19.0825Z" fill="#4961dc"/>
</svg>
