<svg width="26" height="30" viewBox="0 0 26 30" fill="none" xmlns="http://www.w3.org/2000/svg">
<path fill-rule="evenodd" clip-rule="evenodd" d="M26.25 4.6875C26.25 4.43886 26.1512 4.2004 25.9754 4.02459C25.7996 3.84877 25.5611 3.75 25.3125 3.75H14.0625C13.8138 3.75 13.5754 3.84877 13.3996 4.02459C13.2237 4.2004 13.125 4.43886 13.125 4.6875C13.125 4.93614 13.2237 5.1746 13.3996 5.35041C13.5754 5.52623 13.8138 5.625 14.0625 5.625H23.0493L4.02371 24.6487C3.93655 24.7359 3.86741 24.8394 3.82023 24.9533C3.77306 25.0672 3.74878 25.1892 3.74878 25.3125C3.74878 25.4358 3.77306 25.5578 3.82023 25.6717C3.86741 25.7856 3.93655 25.8891 4.02371 25.9762C4.11088 26.0634 4.21436 26.1326 4.32824 26.1797C4.44213 26.2269 4.56419 26.2512 4.68746 26.2512C4.81073 26.2512 4.9328 26.2269 5.04668 26.1797C5.16057 26.1326 5.26405 26.0634 5.35121 25.9762L24.375 6.95062V15.9375C24.375 16.1861 24.4737 16.4246 24.6495 16.6004C24.8254 16.7762 25.0638 16.875 25.3125 16.875C25.5611 16.875 25.7996 16.7762 25.9754 16.6004C26.1512 16.4246 26.25 16.1861 26.25 15.9375V4.6875Z" fill="white"/>
</svg>
