<svg width="24" height="24" viewBox="0 0 24 24" fill="none" xmlns="http://www.w3.org/2000/svg">
<path id="icon" d="M20.116 5.901C20.0348 5.79322 19.948 5.68975 19.856 5.591C19.9485 5.34444 20.0188 5.09009 20.066 4.831C20.2053 3.8832 20.0843 2.91535 19.716 2.031C19.716 2.031 18.596 1.681 16.026 3.411C14.9349 3.10974 13.8079 2.95835 12.676 2.961C11.5408 2.95901 10.4106 3.11038 9.316 3.411C6.746 1.661 5.626 2.031 5.626 2.031C5.26208 2.90598 5.14115 3.863 5.276 4.801C5.32345 5.07087 5.39713 5.33545 5.496 5.591C5.406 5.691 5.316 5.801 5.236 5.901C4.48978 6.83702 4.09367 8.00414 4.116 9.201C4.11362 9.48486 4.12698 9.76862 4.156 10.051C4.476 14.481 7.426 15.511 10.236 15.831C9.83828 16.2008 9.56859 16.6877 9.46599 17.221C9.37305 17.5767 9.32931 17.9434 9.336 18.311V19.621C8.217 19.721 7.06899 19.558 6.713 18.56C6.33085 17.6048 5.69707 16.7709 4.879 16.147C4.81921 16.1146 4.76233 16.0772 4.709 16.035C4.63716 15.8462 4.50989 15.6836 4.3439 15.5684C4.17792 15.4533 3.98099 15.3911 3.779 15.39H3.774C3.50964 15.39 3.25604 15.4947 3.06865 15.6811C2.88126 15.8676 2.77532 16.1207 2.774 16.385C2.771 17.197 3.584 17.722 3.917 17.9C4.30605 18.292 4.61901 18.7528 4.84 19.259C5.204 20.282 6.269 21.837 9.30599 21.635L9.30799 21.733L9.312 22.001C9.312 22.2662 9.41735 22.5206 9.60489 22.7081C9.79243 22.8956 10.0468 23.001 10.312 23.001H15.026C15.2912 23.001 15.5456 22.8956 15.7331 22.7081C15.9206 22.5206 16.026 22.2662 16.026 22.001C16.026 22.001 16.034 18.841 16.034 18.311C16.0407 17.9434 15.9969 17.5767 15.904 17.221L15.902 17.215L15.906 17.221C15.897 17.186 15.884 17.158 15.874 17.124C15.7626 16.6285 15.5047 16.178 15.134 15.831L15.146 15.852L15.126 15.832C17.936 15.512 20.866 14.462 21.186 10.052C21.215 9.76962 21.2284 9.48585 21.226 9.202C21.2437 8.00751 20.852 6.84295 20.116 5.902V5.901Z" fill="#4961dc"/>
</svg>
