<svg width="36" height="36" viewBox="0 0 36 36" fill="none" xmlns="http://www.w3.org/2000/svg">
<path d="M25.5234 12.375L17.2969 32.625H20.6184L22.3404 28.5469H28.7065L30.4284 32.625H33.75L25.5234 12.375ZM23.6468 25.4531L25.5234 19.677L27.4001 25.4531H23.6468ZM19.125 22.5C19.1074 22.4866 17.6773 21.3912 15.9314 19.4998C18.7144 15.7282 20.2908 11.4412 20.9341 9.42188H24.75V6.32812H15.0469V3.375H11.9531V6.32812H2.25V9.42188H17.666C16.9966 11.3168 15.7641 14.3086 13.8839 17.0409C11.5861 13.9866 10.5694 11.7056 10.556 11.6817L10.0547 10.6875L7.38281 12.2344L7.86586 13.2089C7.92844 13.3186 9.07453 15.8737 11.7127 19.2959C11.7773 19.3809 11.8427 19.4639 11.9081 19.5469C8.41219 23.5448 5.63977 25.1079 5.60391 25.1346L4.5 25.875L6.11719 28.4062L7.47422 27.5998C7.62891 27.4823 10.3802 25.9123 13.943 21.9199C15.667 23.7677 16.9819 24.7908 17.0578 24.8498L17.9297 25.4531L19.125 22.5Z" fill="white"/>
</svg>
