<svg width="154" height="24" viewBox="0 0 154 24" fill="none" xmlns="http://www.w3.org/2000/svg">
<path d="M0.35 14.39V12.2L13.97 5.51V8.57L4.1 13.31L13.97 18.05V21.08L0.35 14.39ZM24.2284 23.45C22.7884 23.45 21.4884 23.14 20.3284 22.52C19.1884 21.88 18.2884 20.99 17.6284 19.85C16.9884 18.69 16.6684 17.35 16.6684 15.83C16.6684 14.33 16.9884 13 17.6284 11.84C18.2884 10.68 19.1884 9.78 20.3284 9.14C21.4884 8.48 22.7884 8.15 24.2284 8.15C26.8284 8.15 28.7984 8.94 30.1384 10.52V0.829999H33.1684V23H30.2284V20.9C29.4284 21.78 28.5484 22.43 27.5884 22.85C26.6484 23.25 25.5284 23.45 24.2284 23.45ZM24.9184 21.05C26.1584 21.05 27.2384 20.73 28.1584 20.09C29.0984 19.43 29.7584 18.55 30.1384 17.45V14.21C29.7984 13.11 29.1484 12.23 28.1884 11.57C27.2484 10.91 26.1584 10.58 24.9184 10.58C23.9384 10.58 23.0484 10.8 22.2484 11.24C21.4684 11.68 20.8484 12.3 20.3884 13.1C19.9484 13.9 19.7284 14.81 19.7284 15.83C19.7284 16.85 19.9484 17.76 20.3884 18.56C20.8484 19.36 21.4684 19.98 22.2484 20.42C23.0484 20.84 23.9384 21.05 24.9184 21.05ZM43.5936 23.45C42.1536 23.45 40.8536 23.14 39.6936 22.52C38.5536 21.88 37.6536 20.99 36.9936 19.85C36.3536 18.69 36.0336 17.35 36.0336 15.83C36.0336 14.33 36.3536 13 36.9936 11.84C37.6536 10.68 38.5536 9.78 39.6936 9.14C40.8536 8.48 42.1536 8.15 43.5936 8.15C46.1936 8.15 48.1636 8.94 49.5036 10.52V0.829999H52.5336V23H49.5936V20.9C48.7936 21.78 47.9136 22.43 46.9536 22.85C46.0136 23.25 44.8936 23.45 43.5936 23.45ZM44.2836 21.05C45.5236 21.05 46.6036 20.73 47.5236 20.09C48.4636 19.43 49.1236 18.55 49.5036 17.45V14.21C49.1636 13.11 48.5136 12.23 47.5536 11.57C46.6136 10.91 45.5236 10.58 44.2836 10.58C43.3036 10.58 42.4136 10.8 41.6136 11.24C40.8336 11.68 40.2136 12.3 39.7536 13.1C39.3136 13.9 39.0936 14.81 39.0936 15.83C39.0936 16.85 39.3136 17.76 39.7536 18.56C40.2136 19.36 40.8336 19.98 41.6136 20.42C42.4136 20.84 43.3036 21.05 44.2836 21.05ZM55.0766 8.6H58.2866L62.5166 18.95L66.7466 8.6H69.9566L63.8366 23H61.1966L55.0766 8.6ZM75.0247 5.78C74.5247 5.78 74.1047 5.61 73.7647 5.27C73.4247 4.93 73.2547 4.51 73.2547 4.01C73.2547 3.51 73.4247 3.09 73.7647 2.75C74.1047 2.41 74.5247 2.24 75.0247 2.24C75.5447 2.24 75.9747 2.41 76.3147 2.75C76.6747 3.09 76.8547 3.51 76.8547 4.01C76.8547 4.51 76.6747 4.93 76.3147 5.27C75.9747 5.61 75.5447 5.78 75.0247 5.78ZM73.4947 8.6H76.5847V23H73.4947V8.6ZM86.3047 23.45C84.8447 23.45 83.7147 23.03 82.9147 22.19C82.1347 21.35 81.7447 20.16 81.7447 18.62V10.94H79.5547V8.6H81.7447V4.28H84.8047V8.6H88.3447V10.94H84.8047V18.41C84.8047 19.37 84.9847 20.05 85.3447 20.45C85.7247 20.85 86.4047 21.05 87.3847 21.05C87.9647 21.05 88.5447 20.92 89.1247 20.66V23.06C88.3647 23.32 87.4247 23.45 86.3047 23.45ZM96.6959 23.45C94.9559 23.45 93.5559 23.01 92.4959 22.13C91.4559 21.23 90.9359 20.02 90.9359 18.5C90.9359 16.9 91.4359 15.67 92.4359 14.81C93.4559 13.93 94.8959 13.49 96.7559 13.49C98.7359 13.49 100.416 13.89 101.796 14.69V13.94C101.796 12.8 101.446 11.96 100.746 11.42C100.066 10.86 98.9859 10.58 97.5059 10.58C96.6259 10.58 95.7659 10.67 94.9259 10.85C94.1059 11.01 93.3659 11.24 92.7059 11.54V9.08C93.3059 8.8 94.0859 8.58 95.0459 8.42C96.0059 8.24 96.9359 8.15 97.8359 8.15C100.216 8.15 101.976 8.68 103.116 9.74C104.276 10.78 104.856 12.23 104.856 14.09V23H102.006V21.38C101.386 22.06 100.646 22.58 99.7859 22.94C98.9459 23.28 97.9159 23.45 96.6959 23.45ZM97.4459 21.14C98.4059 21.14 99.2759 20.95 100.056 20.57C100.836 20.19 101.416 19.66 101.796 18.98V17.03C100.496 16.19 99.0459 15.77 97.4459 15.77C96.2859 15.77 95.4159 16 94.8359 16.46C94.2759 16.9 93.9959 17.58 93.9959 18.5C93.9959 20.26 95.1459 21.14 97.4459 21.14ZM108.616 0.829999H111.646V23H108.616V0.829999ZM134.613 1.58H137.673L129.123 23H126.063L134.613 1.58ZM140.36 18.05L150.2 13.31L140.36 8.57V5.51L153.98 12.2V14.39L140.36 21.08V18.05Z" fill="white"/>
</svg>
