<svg width="74" height="74" viewBox="0 0 74 74" fill="none" xmlns="http://www.w3.org/2000/svg">
<path id="icon" d="M36.5722 60.9412C36.3294 60.9412 36.0866 60.8712 35.8669 60.7546L33.6469 59.4254C33.3116 59.2388 33.4734 59.1688 33.5891 59.1339C34.0284 58.9823 34.1209 58.9473 34.595 58.6675C34.6413 58.6441 34.7106 58.6558 34.7569 58.6791L36.4681 59.7052C36.5259 59.7402 36.6184 59.7402 36.6763 59.7052L43.3594 55.8107C43.4172 55.7758 43.4634 55.7058 43.4634 55.6242V47.8469C43.4634 47.7653 43.4288 47.6953 43.3594 47.6603L36.6763 43.7775C36.6184 43.7425 36.5375 43.7425 36.4681 43.7775L29.785 47.6603C29.7156 47.6953 29.6809 47.7769 29.6809 47.8469V55.6242C29.6809 55.6941 29.7272 55.7641 29.785 55.7991L31.6119 56.8601C32.6062 57.3615 33.2191 56.7669 33.2191 56.1839V48.4998C33.2191 48.3949 33.3 48.3016 33.4156 48.3016H34.2597C34.3637 48.3016 34.4563 48.3832 34.4563 48.4998V56.1839C34.4563 57.5248 33.7394 58.2827 32.4791 58.2827C32.0975 58.2827 31.7853 58.2827 30.9413 57.8629L29.1837 56.8485C28.7559 56.592 28.4784 56.1256 28.4784 55.6242V47.8469C28.4784 47.3455 28.7444 46.8674 29.1837 46.6226L35.8669 42.7281C36.2947 42.4832 36.8497 42.4832 37.2659 42.7281L43.9491 46.6226C44.3769 46.8791 44.6544 47.3455 44.6544 47.8469V55.6242C44.6544 56.1256 44.3884 56.6036 43.9491 56.8485L37.2659 60.743C37.0694 60.8712 36.8266 60.9412 36.5722 60.9412V60.9412ZM41.9719 53.2688C41.9719 51.8113 41.0006 51.4265 38.9425 51.1467C36.8612 50.8669 36.6531 50.7269 36.6531 50.2372C36.6531 49.8291 36.8266 49.2927 38.3644 49.2927C39.7403 49.2927 40.2491 49.5959 40.4572 50.5287C40.4803 50.622 40.5497 50.6803 40.6422 50.6803H41.5094C41.5672 50.6803 41.6134 50.657 41.6481 50.622C41.6828 50.5753 41.7059 50.5287 41.6944 50.4704C41.5556 48.8613 40.5034 48.1151 38.3644 48.1151C36.4566 48.1151 35.3234 48.9313 35.3234 50.2838C35.3234 51.7647 36.4566 52.1611 38.2834 52.3477C40.4688 52.5692 40.6422 52.884 40.6422 53.3155C40.6422 54.0734 40.0409 54.3882 38.6303 54.3882C36.8613 54.3882 36.4681 53.9451 36.3409 53.0589C36.3294 52.9657 36.2484 52.8957 36.1444 52.8957H35.2772C35.1731 52.8957 35.0806 52.9773 35.0806 53.0939C35.0806 54.225 35.6934 55.5775 38.6188 55.5775C40.7578 55.5775 41.9719 54.738 41.9719 53.2688V53.2688ZM48.2734 47.4271C48.2734 48.1384 47.6953 48.7214 46.99 48.7214C46.2847 48.7214 45.7066 48.1384 45.7066 47.4271C45.7066 46.6925 46.3078 46.1329 46.99 46.1329C47.6837 46.1212 48.2734 46.6925 48.2734 47.4271ZM48.0653 47.4271C48.0653 46.8208 47.5797 46.3427 46.9784 46.3427C46.3887 46.3427 45.9031 46.8208 45.9031 47.4271C45.9031 48.0334 46.3887 48.5232 46.9784 48.5232C47.5797 48.5115 48.0653 48.0218 48.0653 47.4271ZM47.545 48.15H47.2444C47.2328 48.0801 47.1866 47.707 47.1866 47.6953C47.1634 47.6137 47.1403 47.567 47.0362 47.567H46.7819V48.15H46.5044V46.6925H47.0016C47.175 46.6925 47.5103 46.6925 47.5103 47.0773C47.5103 47.3455 47.3369 47.4038 47.2328 47.4388C47.4294 47.4504 47.4409 47.5787 47.4756 47.7653C47.4872 47.8819 47.5103 48.0801 47.545 48.15V48.15ZM47.2212 47.124C47.2212 46.9257 47.0825 46.9257 47.0131 46.9257H46.7819V47.3338H47.0016C47.1866 47.3338 47.2212 47.2056 47.2212 47.124V47.124ZM15.8753 30.5083C15.8753 30.1935 15.7134 29.9137 15.4475 29.7621L8.35969 25.6461C8.24406 25.5761 8.10531 25.5411 7.96656 25.5295H7.89719C7.75844 25.5295 7.63125 25.5761 7.50406 25.6461L0.427813 29.7621C0.161875 29.9137 0 30.2052 0 30.5083L0.0115625 41.5854C0.0115625 41.737 0.0925 41.8769 0.219688 41.9585C0.346875 42.0402 0.50875 42.0402 0.6475 41.9585L4.85625 39.5216C5.12219 39.3583 5.28406 39.0785 5.28406 38.7753V33.5982C5.28406 33.2951 5.44594 33.0036 5.71188 32.852L7.50406 31.8143C7.64281 31.7326 7.78156 31.6977 7.93187 31.6977C8.08219 31.6977 8.2325 31.7326 8.35969 31.8143L10.1519 32.852C10.4178 33.0036 10.5797 33.2951 10.5797 33.5982V38.7753C10.5797 39.0785 10.7416 39.37 11.0075 39.5216L15.2163 41.9585C15.3434 42.0402 15.5169 42.0402 15.6441 41.9585C15.7713 41.8886 15.8522 41.737 15.8522 41.5854L15.8753 30.5083ZM54.6328 18.4168V38.9852C54.6328 39.2884 54.4709 39.5799 54.205 39.7315L47.1172 43.8591C46.8513 44.0107 46.5275 44.0107 46.2616 43.8591L39.1737 39.7315C38.9078 39.5799 38.7459 39.2884 38.7459 38.9852V30.7299C38.7459 30.4267 38.9078 30.1352 39.1737 29.9836L46.2616 25.8559C46.5275 25.7044 46.8513 25.7044 47.1172 25.8559L48.8862 26.882C49.0828 26.9986 49.3372 26.8471 49.3372 26.6255V15.665C49.3372 15.3385 49.6841 15.1287 49.9731 15.2919L54.1934 17.6706C54.4594 17.8105 54.6328 18.102 54.6328 18.4168V18.4168ZM49.3141 33.4467C49.3141 33.365 49.2678 33.2951 49.21 33.2601L46.7819 31.8376C46.7125 31.8026 46.6316 31.8026 46.5622 31.8376L44.1341 33.2601C44.0647 33.2951 44.03 33.365 44.03 33.4467V36.2801C44.03 36.3617 44.0763 36.4317 44.1341 36.4666L46.5622 37.8775C46.6316 37.9125 46.7125 37.9125 46.7703 37.8775L49.1984 36.4666C49.2678 36.4317 49.3025 36.3617 49.3025 36.2801V33.4467H49.3141ZM73.5722 33.365C73.8381 33.2135 74 32.922 74 32.6188V30.6249C74 30.3218 73.8381 30.0303 73.5722 29.8787L66.5306 25.751C66.2647 25.5994 65.9409 25.5994 65.675 25.751L58.5872 29.8787C58.3213 30.0303 58.1594 30.3218 58.1594 30.6249V38.8803C58.1594 39.1951 58.3213 39.4749 58.5872 39.6265L65.6287 43.6726C65.8831 43.8242 66.2069 43.8242 66.4728 43.6726L70.7278 41.2823C71.0169 41.119 71.0169 40.6992 70.7278 40.536L63.5938 36.4083C63.455 36.3267 63.3741 36.1868 63.3741 36.0352V33.4467C63.3741 33.2951 63.455 33.1552 63.5938 33.0735L65.8138 31.7793C65.9409 31.6977 66.1144 31.6977 66.2416 31.7793L68.4616 33.0735C68.5887 33.1552 68.6813 33.2951 68.6813 33.4467V35.4755C68.6813 35.802 69.0397 36.0119 69.3287 35.8486L73.5722 33.365V33.365ZM64.6344 33.7731C64.5881 33.8081 64.5534 33.8548 64.5534 33.9131V35.4988C64.5534 35.5571 64.5881 35.6154 64.6344 35.6388L65.9987 36.4317C66.045 36.4666 66.1144 36.4666 66.1606 36.4317L67.525 35.6388C67.5713 35.6038 67.6059 35.5571 67.6059 35.4988V33.9131C67.6059 33.8548 67.5713 33.7965 67.525 33.7731L66.1606 32.9803C66.1144 32.9453 66.045 32.9453 65.9987 32.9803L64.6344 33.7731ZM35.2425 38.8453V30.6366C35.2425 30.3334 35.0575 30.0419 34.7916 29.8903L27.7269 25.786C27.4841 25.6461 27.1487 25.6227 26.8712 25.786L19.8066 29.8903C19.5406 30.0419 19.3556 30.3218 19.3556 30.6366V38.8453C19.3556 39.1718 19.5753 39.4516 19.8181 39.5915L26.8944 43.6959C27.1719 43.8591 27.4956 43.8475 27.75 43.6959L34.8031 39.5915C35.0113 39.4749 35.1616 39.2767 35.2194 39.0435C35.2309 38.9852 35.2425 38.9153 35.2425 38.8453ZM26.6516 24.2818L26.5591 24.3401H26.6863L26.6516 24.2818V24.2818ZM35.4622 39.4633L35.4159 39.3817V39.4866L35.4622 39.4633Z" fill="#4961DC"/>
</svg>
