<svg width="24" height="24" viewBox="0 0 24 24" fill="none" xmlns="http://www.w3.org/2000/svg">
<path id="icon" d="M18 19H6C5.45 19 5 18.55 5 18V6C5 5.45 5.45 5 6 5H11C11.55 5 12 4.55 12 4C12 3.45 11.55 3 11 3H5C4.46957 3 3.96086 3.21071 3.58579 3.58579C3.21071 3.96086 3 4.46957 3 5V19C3 20.1 3.9 21 5 21H19C20.1 21 21 20.1 21 19V13C21 12.45 20.55 12 20 12C19.45 12 19 12.45 19 13V18C19 18.55 18.55 19 18 19ZM14 4C14 4.55 14.45 5 15 5H17.59L8.46 14.13C8.27302 14.317 8.16798 14.5706 8.16798 14.835C8.16798 15.0994 8.27302 15.353 8.46 15.54C8.64698 15.727 8.90057 15.832 9.165 15.832C9.42943 15.832 9.68302 15.727 9.87 15.54L19 6.41V9C19 9.55 19.45 10 20 10C20.55 10 21 9.55 21 9V4C21 3.45 20.55 3 20 3H15C14.45 3 14 3.45 14 4Z" fill="#4961dc"/>
</svg>
