<svg width="36" height="36" viewBox="0 0 36 36" fill="none" xmlns="http://www.w3.org/2000/svg">
<g clip-path="url(#clip0_102_110)">
<path d="M31.68 6.16C29.76 2.86 21.08 2.16 20.1 2.07L19 2V22.29C18.7458 22.0845 18.4748 21.9005 18.19 21.74C17.1856 21.2345 16.0892 20.9375 14.967 20.867C13.8447 20.7966 12.7198 20.9541 11.66 21.33C7.54001 22.66 4.89001 26.46 5.75001 29.8C5.94168 30.5064 6.27678 31.1657 6.73442 31.7369C7.19206 32.3081 7.76244 32.7789 8.41001 33.12C9.52018 33.7123 10.7618 34.015 12.02 34C13.0325 33.9992 14.0384 33.8371 15 33.52C18.7 32.33 21.2 29.15 21.06 26.1V8.49C22.06 8.61 23.43 8.82 24.88 9.13C26.3154 9.34819 27.6944 9.8441 28.94 10.59C29.94 11.25 29.32 12.49 29.27 12.59C28.792 13.3158 28.2353 13.9865 27.61 14.59C27.4281 14.7704 27.3224 15.0136 27.3146 15.2696C27.3068 15.5257 27.3975 15.7749 27.5681 15.966C27.7387 16.1571 27.9761 16.2754 28.2313 16.2966C28.4866 16.3179 28.7402 16.2403 28.94 16.08C29.15 15.85 34.5 11 31.68 6.16Z" fill="white"/>
</g>
<defs>
<clipPath id="clip0_102_110">
<rect width="36" height="36" fill="white"/>
</clipPath>
</defs>
</svg>
