<svg width="21" height="24" viewBox="0 0 21 24" fill="none" xmlns="http://www.w3.org/2000/svg">
<path d="M10.75 12C13.5117 12 15.75 9.76172 15.75 7C15.75 4.23828 13.5117 2 10.75 2C7.98828 2 5.75 4.23828 5.75 7C5.75 9.76172 7.98828 12 10.75 12ZM14.25 13.25H13.5977C12.7305 13.6484 11.7656 13.875 10.75 13.875C9.73438 13.875 8.77344 13.6484 7.90234 13.25H7.25C4.35156 13.25 2 15.6016 2 18.5V20.125C2 21.1602 2.83984 22 3.875 22H17.625C18.6602 22 19.5 21.1602 19.5 20.125V18.5C19.5 15.6016 17.1484 13.25 14.25 13.25Z" fill="white"/>
</svg>
