<svg width="24" height="24" viewBox="0 0 24 24" fill="none" xmlns="http://www.w3.org/2000/svg">
<path id="icon" d="M6.09254 8.69457V22.3586H1.63854V8.69457H6.09254ZM6.37598 4.47541C6.38497 5.14643 6.15778 5.70715 5.69438 6.15756C5.23098 6.60797 4.62137 6.83318 3.86554 6.83318H3.83855C3.10071 6.83318 2.50684 6.60797 2.05694 6.15756C1.60704 5.70715 1.3821 5.14643 1.3821 4.47541C1.3821 3.7952 1.61379 3.23218 2.07719 2.78637C2.54059 2.34055 3.1457 2.11765 3.89253 2.11765C4.63937 2.11765 5.23773 2.34055 5.68763 2.78637C6.13753 3.23218 6.36698 3.7952 6.37598 4.47541ZM22.1135 14.5269V22.3586H17.6729V15.0509C17.6729 14.0857 17.4907 13.3297 17.1263 12.7828C16.7619 12.2358 16.1928 11.9624 15.419 11.9624C14.8521 11.9624 14.3774 12.1209 13.995 12.438C13.6126 12.7552 13.3269 13.1481 13.138 13.6169C13.039 13.8927 12.9895 14.265 12.9895 14.7338V22.3586H8.54899C8.56699 18.691 8.57598 15.7173 8.57598 13.4377C8.57598 11.1581 8.57148 9.79762 8.56249 9.3564L8.54899 8.69457H12.9895V10.6801H12.9625C13.1425 10.3859 13.3269 10.1285 13.5159 9.90793C13.7048 9.68732 13.959 9.44833 14.2785 9.19095C14.5979 8.93357 14.9893 8.73364 15.4527 8.59116C15.9161 8.44869 16.4312 8.37745 16.9981 8.37745C18.5368 8.37745 19.774 8.8991 20.7098 9.9424C21.6456 10.9857 22.1135 12.5139 22.1135 14.5269Z" fill="#4961dc"/>
</svg>
