<svg width="56" height="64" viewBox="0 0 56 64" fill="none" xmlns="http://www.w3.org/2000/svg">
<path d="M54.1333 47.4799L30.0624 62.6563C28.76 63.4774 27.1019 63.4782 25.7988 62.6582L1.86966 47.6007C0.706047 46.8685 0 45.59 0 44.2152V19.7906C0 18.4126 0.709258 17.1316 1.87716 16.4003L25.9481 1.32792C27.2454 0.515563 28.8926 0.514819 30.1907 1.32601L54.1198 16.2796C55.2894 17.0105 56 18.2924 56 19.6717V44.0963C56 45.4699 55.2952 46.7474 54.1333 47.4799Z" fill="#353741"/>
<path d="M17.0668 43.2841C15.9304 43.2841 14.9272 42.997 14.0572 42.4229C13.1871 41.8429 12.5065 41.0262 12.0153 39.9727C11.524 38.9132 11.2784 37.6615 11.2784 36.2173C11.2784 34.785 11.524 33.5421 12.0153 32.4886C12.5065 31.4351 13.1901 30.6213 14.0661 30.0472C14.942 29.4731 15.9541 29.1861 17.1023 29.1861C17.9901 29.1861 18.6914 29.334 19.2063 29.63C19.7272 29.92 20.1237 30.2514 20.396 30.6243C20.6741 30.9912 20.8902 31.2931 21.044 31.5298H21.2216V24.8182H23.3168V43H21.2926V40.9048H21.044C20.8902 41.1534 20.6712 41.4671 20.3871 41.8459C20.103 42.2187 19.6976 42.5531 19.1708 42.8491C18.6441 43.1391 17.9427 43.2841 17.0668 43.2841ZM17.3509 41.402C18.1913 41.402 18.9015 41.183 19.4815 40.745C20.0616 40.3011 20.5025 39.6886 20.8043 38.9073C21.1062 38.1201 21.2571 37.2116 21.2571 36.1818C21.2571 35.1638 21.1091 34.2731 20.8132 33.5096C20.5173 32.7402 20.0793 32.1424 19.4993 31.7163C18.9193 31.2842 18.2031 31.0682 17.3509 31.0682C16.4631 31.0682 15.7232 31.296 15.1314 31.7518C14.5455 32.2016 14.1045 32.8142 13.8086 33.5895C13.5186 34.3589 13.3736 35.223 13.3736 36.1818C13.3736 37.1525 13.5215 38.0343 13.8175 38.8274C14.1193 39.6146 14.5632 40.242 15.1491 40.7095C15.741 41.1712 16.4749 41.402 17.3509 41.402ZM32.5941 43.2841C31.4577 43.2841 30.4545 42.997 29.5845 42.4229C28.7145 41.8429 28.0339 41.0262 27.5426 39.9727C27.0514 38.9132 26.8058 37.6615 26.8058 36.2173C26.8058 34.785 27.0514 33.5421 27.5426 32.4886C28.0339 31.4351 28.7174 30.6213 29.5934 30.0472C30.4693 29.4731 31.4814 29.1861 32.6296 29.1861C33.5174 29.1861 34.2188 29.334 34.7337 29.63C35.2545 29.92 35.651 30.2514 35.9233 30.6243C36.2015 30.9912 36.4175 31.2931 36.5714 31.5298H36.7489V24.8182H38.8441V43H36.82V40.9048H36.5714C36.4175 41.1534 36.1985 41.4671 35.9144 41.8459C35.6303 42.2187 35.2249 42.5531 34.6982 42.8491C34.1714 43.1391 33.4701 43.2841 32.5941 43.2841ZM32.8782 41.402C33.7186 41.402 34.4289 41.183 35.0089 40.745C35.5889 40.3011 36.0298 39.6886 36.3317 38.9073C36.6335 38.1201 36.7844 37.2116 36.7844 36.1818C36.7844 35.1638 36.6365 34.2731 36.3406 33.5096C36.0446 32.7402 35.6067 32.1424 35.0266 31.7163C34.4466 31.2842 33.7305 31.0682 32.8782 31.0682C31.9904 31.0682 31.2506 31.296 30.6587 31.7518C30.0728 32.2016 29.6319 32.8142 29.3359 33.5895C29.0459 34.3589 28.9009 35.223 28.9009 36.1818C28.9009 37.1525 29.0489 38.0343 29.3448 38.8274C29.6467 39.6146 30.0906 40.242 30.6765 40.7095C31.2683 41.1712 32.0022 41.402 32.8782 41.402ZM44.4993 43.142C44.0613 43.142 43.6855 42.9852 43.3718 42.6715C43.0581 42.3578 42.9013 41.982 42.9013 41.544C42.9013 41.1061 43.0581 40.7302 43.3718 40.4165C43.6855 40.1029 44.0613 39.946 44.4993 39.946C44.9373 39.946 45.3131 40.1029 45.6268 40.4165C45.9405 40.7302 46.0973 41.1061 46.0973 41.544C46.0973 41.834 46.0233 42.1004 45.8754 42.343C45.7333 42.5857 45.541 42.781 45.2983 42.929C45.0616 43.071 44.7952 43.142 44.4993 43.142Z" fill="#1B1C23"/>
<path d="M15.7841 41.2727C14.6932 41.2727 13.7301 40.9972 12.8949 40.446C12.0597 39.8892 11.4063 39.1051 10.9347 38.0938C10.4631 37.0767 10.2273 35.875 10.2273 34.4886C10.2273 33.1136 10.4631 31.9205 10.9347 30.9091C11.4063 29.8977 12.0625 29.1165 12.9034 28.5653C13.7443 28.0142 14.7159 27.7386 15.8182 27.7386C16.6705 27.7386 17.3438 27.8807 17.8381 28.1648C18.3381 28.4432 18.7188 28.7614 18.9801 29.1193C19.2472 29.4716 19.4545 29.7614 19.6023 29.9886H19.7727V23.5455H21.7841V41H19.8409V38.9886H19.6023C19.4545 39.2273 19.2443 39.5284 18.9716 39.892C18.6989 40.25 18.3097 40.571 17.804 40.8551C17.2983 41.1335 16.625 41.2727 15.7841 41.2727ZM16.0568 39.4659C16.8636 39.4659 17.5455 39.2557 18.1023 38.8352C18.6591 38.4091 19.0824 37.821 19.3722 37.071C19.6619 36.3153 19.8068 35.4432 19.8068 34.4545C19.8068 33.4773 19.6648 32.6222 19.3807 31.8892C19.0966 31.1506 18.6761 30.5767 18.1193 30.1676C17.5625 29.7528 16.875 29.5455 16.0568 29.5455C15.2045 29.5455 14.4943 29.7642 13.9261 30.2017C13.3636 30.6335 12.9403 31.2216 12.6562 31.9659C12.3778 32.7045 12.2386 33.5341 12.2386 34.4545C12.2386 35.3864 12.3807 36.233 12.6648 36.9943C12.9545 37.75 13.3807 38.3523 13.9432 38.8011C14.5114 39.2443 15.2159 39.4659 16.0568 39.4659ZM30.6903 41.2727C29.5994 41.2727 28.6364 40.9972 27.8011 40.446C26.9659 39.8892 26.3125 39.1051 25.8409 38.0938C25.3693 37.0767 25.1335 35.875 25.1335 34.4886C25.1335 33.1136 25.3693 31.9205 25.8409 30.9091C26.3125 29.8977 26.9688 29.1165 27.8097 28.5653C28.6506 28.0142 29.6222 27.7386 30.7244 27.7386C31.5767 27.7386 32.25 27.8807 32.7443 28.1648C33.2443 28.4432 33.625 28.7614 33.8864 29.1193C34.1534 29.4716 34.3608 29.7614 34.5085 29.9886H34.679V23.5455H36.6903V41H34.7472V38.9886H34.5085C34.3608 39.2273 34.1506 39.5284 33.8778 39.892C33.6051 40.25 33.2159 40.571 32.7102 40.8551C32.2045 41.1335 31.5313 41.2727 30.6903 41.2727ZM30.9631 39.4659C31.7699 39.4659 32.4517 39.2557 33.0085 38.8352C33.5653 38.4091 33.9886 37.821 34.2784 37.071C34.5682 36.3153 34.7131 35.4432 34.7131 34.4545C34.7131 33.4773 34.571 32.6222 34.2869 31.8892C34.0028 31.1506 33.5824 30.5767 33.0256 30.1676C32.4688 29.7528 31.7813 29.5455 30.9631 29.5455C30.1108 29.5455 29.4006 29.7642 28.8324 30.2017C28.2699 30.6335 27.8466 31.2216 27.5625 31.9659C27.2841 32.7045 27.1449 33.5341 27.1449 34.4545C27.1449 35.3864 27.2869 36.233 27.571 36.9943C27.8608 37.75 28.2869 38.3523 28.8494 38.8011C29.4176 39.2443 30.1222 39.4659 30.9631 39.4659ZM42.1193 41.1364C41.6989 41.1364 41.3381 40.9858 41.0369 40.6847C40.7358 40.3835 40.5852 40.0227 40.5852 39.6023C40.5852 39.1818 40.7358 38.821 41.0369 38.5199C41.3381 38.2187 41.6989 38.0682 42.1193 38.0682C42.5398 38.0682 42.9006 38.2187 43.2017 38.5199C43.5028 38.821 43.6534 39.1818 43.6534 39.6023C43.6534 39.8807 43.5824 40.1364 43.4403 40.3693C43.304 40.6023 43.1193 40.7898 42.8864 40.9318C42.6591 41.0682 42.4034 41.1364 42.1193 41.1364Z" fill="#F7F7F7"/>
</svg>
